<?xml version="1.0" encoding="iso-8859-1"?>
<!-- Generator: Adobe Illustrator 19.0.0, SVG Export Plug-In . SVG Version: 6.00 Build 0)  -->
<svg version="1.1" id="Capa_1" xmlns="http://www.w3.org/2000/svg" xmlns:xlink="http://www.w3.org/1999/xlink" x="0px" y="0px"
	 viewBox="0 0 480 480" style="enable-background:new 0 0 480 480;" xml:space="preserve">
<path style="fill:#FF9800;" d="M478.303,456.832l-64-128C411.584,323.424,406.048,320,400,320H80
	c-6.048,0-11.584,3.424-14.304,8.832l-64,128c-2.496,4.96-2.208,10.848,0.704,15.552S10.464,480,16,480h448
	c5.536,0,10.688-2.88,13.632-7.584C480.544,467.68,480.768,461.824,478.303,456.832z"/>
<g>
	<path style="fill:#FAFAFA;" d="M368,336c0,46.72-114.88,48-128,48s-128-1.28-128-48c0-1.28,0.32-2.88,0.64-4.16l22.08-80.96
		C150.4,263.04,191.68,272,240,272s89.6-8.96,105.28-21.12l22.08,80.96C367.68,333.12,368,334.72,368,336z"/>
	<path style="fill:#FAFAFA;" d="M321.92,165.76C301.76,172.16,272.32,176,240,176s-61.76-3.84-81.92-10.24l24.64-90.24
		C199.36,78.4,219.2,80,240,80c20.8,0,40.64-1.6,57.28-4.48L321.92,165.76z"/>
</g>
<g>
	<path style="fill:#FF9800;" d="M240,80c-20.8,0-40.64-1.6-57.28-4.48l11.2-40.64C200,13.44,218.24,0,240,0s40,13.44,46.08,34.56
		l11.2,40.96C280.64,78.4,260.799,80,240,80z"/>
	<path style="fill:#FF9800;" d="M345.28,250.88C329.6,263.04,288.32,272,240,272s-89.6-8.96-105.28-21.12l23.36-85.12
		c20.16,6.4,49.6,10.24,81.92,10.24s61.76-3.84,81.92-10.24L345.28,250.88z"/>
</g>
<g>
</g>
<g>
</g>
<g>
</g>
<g>
</g>
<g>
</g>
<g>
</g>
<g>
</g>
<g>
</g>
<g>
</g>
<g>
</g>
<g>
</g>
<g>
</g>
<g>
</g>
<g>
</g>
<g>
</g>
</svg>
